{
  "accessors": [
    {
      "bufferView": 2,
      "componentType": 5126,
      "count": 614,
      "max": [
        149.13371276855469,
        117.33038330078125,
        2.0189635753631592
      ],
      "min": [
        -149.13371276855469,
        -115.51383972167969,
        -135.53103637695312
      ],
      "type": "VEC3"
    },
    {
      "bufferView": 2,
      "byteOffset": 7368,
      "componentType": 5126,
      "count": 614,
      "max": [
        1,
        1,
        1
      ],
      "min": [
        -1,
        -1,
        -1
      ],
      "type": "VEC3"
    },
    {
      "bufferView": 3,
      "componentType": 5126,
      "count": 614,
      "max": [
        1,
        1,
        1,
        1
      ],
      "min": [
        -1,
        -1,
        -0.9999079704284668,
        -1
      ],
      "type": "VEC4"
    },
    {
      "bufferView": 1,
      "componentType": 5126,
      "count": 614,
      "max": [
        0.96753358840942383,
        0.9852827787399292
      ],
      "min": [
        0.019443340599536896,
        0.014311438426375389
      ],
      "type": "VEC2"
    },
    {
      "bufferView": 0,
      "componentType": 5125,
      "count": 1320,
      "max": [
        613
      ],
      "min": [
        0
      ],
      "type": "SCALAR"
    },
    {
      "bufferView": 2,
      "byteOffset": 14736,
      "componentType": 5126,
      "count": 554,
      "max": [
        148.68191528320312,
        117.28734588623047,
        74.467689514160156
      ],
      "min": [
        -148.68191528320312,
        -119.19257354736328,
        -12.298553466796875
      ],
      "type": "VEC3"
    },
    {
      "bufferView": 2,
      "byteOffset": 21384,
      "componentType": 5126,
      "count": 554,
      "max": [
        1,
        1,
        1
      ],
      "min": [
        -1,
        -1,
        -1
      ],
      "type": "VEC3"
    },
    {
      "bufferView": 3,
      "byteOffset": 9824,
      "componentType": 5126,
      "count": 554,
      "max": [
        1,
        1,
        1,
        1
      ],
      "min": [
        -1,
        -1,
        -1,
        -1
      ],
      "type": "VEC4"
    },
    {
      "bufferView": 1,
      "byteOffset": 4912,
      "componentType": 5126,
      "count": 554,
      "max": [
        0.97930848598480225,
        0.98777198791503906
      ],
      "min": [
        0.015325551852583885,
        0.15735015273094177
      ],
      "type": "VEC2"
    },
    {
      "bufferView": 0,
      "byteOffset": 5280,
      "componentType": 5125,
      "count": 1392,
      "max": [
        553
      ],
      "min": [
        0
      ],
      "type": "SCALAR"
    },
    {
      "bufferView": 4,
      "componentType": 5126,
      "count": 59,
      "max": [
        1
      ],
      "min": [
        0
      ],
      "type": "SCALAR"
    },
    {
      "bufferView": 5,
      "componentType": 5126,
      "count": 59,
      "max": [
        0.00040619733044877648,
        0,
        0,
        1
      ],
      "min": [
        -0.70710670948028564,
        0,
        0,
        0.7071068286895752
      ],
      "type": "VEC4"
    },
    {
      "bufferView": 4,
      "byteOffset": 236,
      "componentType": 5126,
      "count": 68,
      "max": [
        1.1666666269302368
      ],
      "min": [
        0
      ],
      "type": "SCALAR"
    },
    {
      "bufferView": 5,
      "byteOffset": 944,
      "componentType": 5126,
      "count": 68,
      "max": [
        0.97629600763320923,
        0,
        0,
        1
      ],
      "min": [
        -0.70710670948028564,
        0,
        0,
        -0.47355669736862183
      ],
      "type": "VEC4"
    },
    {
      "bufferView": 4,
      "byteOffset": 508,
      "componentType": 5126,
      "count": 59,
      "max": [
        2.3333332538604736
      ],
      "min": [
        1.3333333730697632
      ],
      "type": "SCALAR"
    },
    {
      "bufferView": 5,
      "byteOffset": 2032,
      "componentType": 5126,
      "count": 59,
      "max": [
        0.00019848164811264724,
        -0,
        0,
        1
      ],
      "min": [
        -0.70710676908493042,
        -0,
        0,
        0.70710676908493042
      ],
      "type": "VEC4"
    },
    {
      "bufferView": 4,
      "byteOffset": 744,
      "componentType": 5126,
      "count": 69,
      "max": [
        2.3333332538604736
      ],
      "min": [
        1.1666666269302368
      ],
      "type": "SCALAR"
    },
    {
      "bufferView": 5,
      "byteOffset": 2976,
      "componentType": 5126,
      "count": 69,
      "max": [
        0.97629600763320923,
        0,
        0,
        1
      ],
      "min": [
        -0.70710676908493042,
        0,
        0,
        -0.47574874758720398
      ],
      "type": "VEC4"
    }
  ],
  "animations": [
    {
      "channels": [
        {
          "sampler": 0,
          "target": {
            "node": 10,
            "path": "rotation"
          }
        }
      ],
      "name": "OpenNormal",
      "samplers": [
        {
          "input": 10,
          "interpolation": "LINEAR",
          "output": 11
        }
      ]
    },
    {
      "channels": [
        {
          "sampler": 0,
          "target": {
            "node": 10,
            "path": "rotation"
          }
        }
      ],
      "name": "OpenExtended",
      "samplers": [
        {
          "input": 12,
          "interpolation": "LINEAR",
          "output": 13
        }
      ]
    },
    {
      "channels": [
        {
          "sampler": 0,
          "target": {
            "node": 10,
            "path": "rotation"
          }
        }
      ],
      "name": "CloseNormal",
      "samplers": [
        {
          "input": 14,
          "interpolation": "LINEAR",
          "output": 15
        }
      ]
    },
    {
      "channels": [
        {
          "sampler": 0,
          "target": {
            "node": 10,
            "path": "rotation"
          }
        }
      ],
      "name": "CloseExtended",
      "samplers": [
        {
          "input": 16,
          "interpolation": "LINEAR",
          "output": 17
        }
      ]
    }
  ],
  "asset": {
    "generator": "Sketchfab (OSG glTF plugin)",
    "version": "2.0"
  },
  "bufferViews": [
    {
      "buffer": 0,
      "byteLength": 10848,
      "byteOffset": 0,
      "name": "floatBufferViews",
      "target": 34963
    },
    {
      "buffer": 0,
      "byteLength": 9344,
      "byteOffset": 10848,
      "byteStride": 8,
      "name": "floatBufferViews",
      "target": 34962
    },
    {
      "buffer": 0,
      "byteLength": 28032,
      "byteOffset": 20192,
      "byteStride": 12,
      "name": "floatBufferViews",
      "target": 34962
    },
    {
      "buffer": 0,
      "byteLength": 18688,
      "byteOffset": 48224,
      "byteStride": 16,
      "name": "floatBufferViews",
      "target": 34962
    },
    {
      "buffer": 0,
      "byteLength": 1020,
      "byteOffset": 66912,
      "name": "floatBufferViews"
    },
    {
      "buffer": 0,
      "byteLength": 4080,
      "byteOffset": 67932,
      "byteStride": 16,
      "name": "floatBufferViews"
    }
  ],
  "buffers": [
    {
      "byteLength": 72012,
      "uri": "scene.bin"
    }
  ],
  "images": [
    {
      "uri": "textures/Material%20%232_baseColor.png"
    }
  ],
  "materials": [
    {
      "doubleSided": false,
      "name": "Material #2",
      "pbrMetallicRoughness": {
        "baseColorFactor": [
          1,
          1,
          1,
          1
        ],
        "baseColorTexture": {
          "index": 0,
          "texCoord": 0
        },
        "metallicFactor": 0,
        "roughnessFactor": 1
      }
    }
  ],
  "meshes": [
    {
      "name": "Mesh_ChestBase_Material #2_0",
      "primitives": [
        {
          "attributes": {
            "NORMAL": 1,
            "POSITION": 0,
            "TANGENT": 2,
            "TEXCOORD_0": 3
          },
          "indices": 4,
          "material": 0,
          "mode": 4
        }
      ]
    },
    {
      "name": "Mesh_ChestLid_Material #2_0",
      "primitives": [
        {
          "attributes": {
            "NORMAL": 6,
            "POSITION": 5,
            "TANGENT": 7,
            "TEXCOORD_0": 8
          },
          "indices": 9,
          "material": 0,
          "mode": 4
        }
      ]
    }
  ],
  "nodes": [
    {
      "children": [
        1
      ],
      "name": "RootNode (gltf orientation matrix)",
      "rotation": [
        -0.70710678118654746,
        -0,
        -0,
        0.70710678118654757
      ]
    },
    {
      "children": [
        2
      ],
      "name": "RootNode (model correction matrix)"
    },
    {
      "children": [
        3
      ],
      "matrix": [
        1,
        0,
        0,
        0,
        0,
        0,
        1,
        0,
        0,
        -1,
        0,
        0,
        0,
        0,
        0,
        1
      ],
      "name": "58fcaea479b8435889e4378324df78e0.fbx"
    },
    {
      "children": [
        4
      ],
      "name": ""
    },
    {
      "children": [
        5
      ],
      "name": "RootNode"
    },
    {
      "children": [
        6
      ],
      "name": "PiratesChest",
      "rotation": [
        -0.70710676908493042,
        -0,
        0,
        0.70710676908493042
      ]
    },
    {
      "children": [
        7,
        10
      ],
      "name": "Mesh_ChestBase",
      "translation": [
        3.4188069548690692e-06,
        78,
        3.4188069548690692e-06
      ]
    },
    {
      "children": [
        9
      ],
      "matrix": [
        1,
        0,
        -0,
        0,
        0,
        1,
        0,
        0,
        0,
        0,
        1,
        0,
        -3.4188069548690692e-06,
        -78,
        132.5,
        1
      ],
      "name": ""
    },
    {
      "mesh": 0,
      "name": "Mesh_ChestBase_Material #2_0"
    },
    {
      "children": [
        8
      ],
      "name": "Geode"
    },
    {
      "children": [
        11
      ],
      "name": "Mesh_ChestLid",
      "translation": [
        1.6847643564688042e-06,
        38.808990478515625,
        134.52767944335938
      ]
    },
    {
      "children": [
        13
      ],
      "matrix": [
        1,
        0,
        -0,
        0,
        0,
        1,
        0,
        0,
        0,
        0,
        1,
        0,
        -5.1035713113378733e-06,
        -116.76577758789062,
        -2.1750082969665527,
        1
      ],
      "name": ""
    },
    {
      "mesh": 1,
      "name": "Mesh_ChestLid_Material #2_0"
    },
    {
      "children": [
        12
      ],
      "name": "Geode"
    }
  ],
  "samplers": [
    {
      "magFilter": 9729,
      "minFilter": 9987,
      "wrapS": 10497,
      "wrapT": 10497
    }
  ],
  "scene": 0,
  "scenes": [
    {
      "name": "OSG_Scene",
      "nodes": [
        0
      ]
    }
  ],
  "textures": [
    {
      "sampler": 0,
      "source": 0
    }
  ]
}

